<svg width="20" height="20" viewBox="0 0 20 20" fill="none" xmlns="http://www.w3.org/2000/svg">
<path fill-rule="evenodd" clip-rule="evenodd" d="M7.42857 4.875V3.1875H12.5714V4.875H7.42857ZM5.71429 4.875V2.625C5.71429 2.32663 5.83469 2.04048 6.04902 1.8295C6.26335 1.61853 6.55404 1.5 6.85714 1.5H13.1429C13.446 1.5 13.7367 1.61853 13.951 1.8295C14.1653 2.04048 14.2857 2.32663 14.2857 2.625V4.875H17.1429C17.3702 4.875 17.5882 4.96389 17.7489 5.12213C17.9097 5.28036 18 5.49497 18 5.71875C18 5.94253 17.9097 6.15714 17.7489 6.31537C17.5882 6.47361 17.3702 6.5625 17.1429 6.5625H16.7257L15.8766 17.4221C15.8325 17.9874 15.5733 18.5154 15.1508 18.9007C14.7283 19.2859 14.1736 19.5 13.5977 19.5H6.40229C5.82637 19.5 5.2717 19.2859 4.84919 18.9007C4.42669 18.5154 4.16749 17.9874 4.12343 17.4221L3.27429 6.5625H2.85714C2.62981 6.5625 2.4118 6.47361 2.25105 6.31537C2.09031 6.15714 2 5.94253 2 5.71875C2 5.49497 2.09031 5.28036 2.25105 5.12213C2.4118 4.96389 2.62981 4.875 2.85714 4.875H5.71429ZM4.99429 6.5625H15.0057L14.1669 17.2928C14.1559 17.434 14.0912 17.566 13.9857 17.6624C13.8802 17.7587 13.7416 17.8123 13.5977 17.8125H6.40229C6.25836 17.8123 6.1198 17.7587 6.01428 17.6624C5.90877 17.566 5.84408 17.434 5.83314 17.2928L4.99429 6.5625Z" fill="#3F71FF"/>
</svg>
