<svg width="34" height="34" viewBox="0 0 34 34" fill="none" xmlns="http://www.w3.org/2000/svg">
<g clip-path="url(#clip0_680_6660)">
<path d="M19.3386 16.9074L15.3614 15.0516C15.0143 14.8904 14.7292 15.071 14.7292 15.4553V18.9509C14.7292 19.3352 15.0143 19.5158 15.3614 19.3547L19.3369 17.4989C19.6857 17.3359 19.6857 17.0703 19.3386 16.9074ZM16.5 0.203125C7.11104 0.203125 -0.5 7.81417 -0.5 17.2031C-0.5 26.5921 7.11104 34.2031 16.5 34.2031C25.889 34.2031 33.5 26.5921 33.5 17.2031C33.5 7.81417 25.889 0.203125 16.5 0.203125ZM16.5 24.1094C7.79813 24.1094 7.64583 23.3249 7.64583 17.2031C7.64583 11.0814 7.79813 10.2969 16.5 10.2969C25.2019 10.2969 25.3542 11.0814 25.3542 17.2031C25.3542 23.3249 25.2019 24.1094 16.5 24.1094Z" fill="#3F71FF"/>
</g>
<defs>
<clipPath id="clip0_680_6660">
<rect width="34" height="34" fill="white"/>
</clipPath>
</defs>
</svg>
